<svg width="434" height="133" viewBox="0 0 434 133" fill="none" xmlns="http://www.w3.org/2000/svg">
<g clip-path="url(#clip0_1845_3582)">
<mask id="mask0_1845_3582" style="mask-type:luminance" maskUnits="userSpaceOnUse" x="0" y="3" width="113" height="114">
<path d="M112.633 60C112.633 28.8973 87.4191 3.68359 56.3164 3.68359C25.2137 3.68359 0 28.8973 0 60C0 91.1027 25.2137 116.316 56.3164 116.316C87.4191 116.316 112.633 91.1027 112.633 60Z" fill="white"/>
</mask>
<g mask="url(#mask0_1845_3582)">
<path d="M80.7925 60C80.7925 73.2214 69.8374 83.9454 56.3161 83.9454C42.7948 83.9454 31.8397 73.2214 31.8397 60C31.8397 46.7786 42.7948 36.0546 56.3161 36.0546C69.8374 36.0546 80.7925 46.7786 80.7925 60Z" fill="#E2F2FF" stroke="#E8E8E8" stroke-width="0.323987"/>
<g filter="url(#filter0_d_1845_3582)">
<path d="M56.3162 70.2936C62.0011 70.2936 66.6095 65.6852 66.6095 60.0003C66.6095 54.3155 62.0011 49.707 56.3162 49.707C50.6314 49.707 46.0229 54.3155 46.0229 60.0003C46.0229 65.6852 50.6314 70.2936 56.3162 70.2936Z" fill="url(#paint0_linear_1845_3582)"/>
</g>
<path d="M99.065 32.8766L59.3504 11.1373C58.4218 10.6245 57.3783 10.3555 56.3177 10.3555C55.2568 10.3555 54.2134 10.6245 53.2848 11.1373L13.5701 32.881C12.5764 33.4248 11.7471 34.2257 11.1691 35.1999C10.5911 36.1741 10.2856 37.2857 10.2847 38.4186V81.5812C10.2856 82.714 10.5911 83.8256 11.1691 84.7999C11.7471 85.7741 12.5764 86.575 13.5701 87.1187L53.2848 108.863C54.2137 109.375 55.257 109.643 56.3177 109.643C57.3782 109.643 58.4215 109.375 59.3504 108.863L99.065 87.1187C100.059 86.575 100.888 85.7741 101.466 84.7999C102.044 83.8256 102.35 82.714 102.351 81.5812V38.4186C102.35 37.285 102.045 36.1724 101.467 35.1974C100.889 34.2222 100.059 33.4207 99.065 32.8766ZM55.8663 15.885C55.9991 15.8123 56.1482 15.7742 56.2996 15.7742C56.451 15.7742 56.6 15.8123 56.7328 15.885L94.4573 36.5321L56.3177 57.4003L18.1779 36.5321L55.8663 15.885ZM16.1516 82.371C16.0132 82.2911 15.8985 82.1759 15.8192 82.0372C15.74 81.8984 15.6989 81.7411 15.7003 81.5812V41.343L53.6098 62.103V102.874L16.1516 82.371ZM96.4475 82.371L59.0254 102.874V62.094L96.9349 41.334V81.5722C96.9379 81.7336 96.8977 81.8928 96.8184 82.0333C96.739 82.1737 96.6234 82.2904 96.4836 82.371H96.4475Z" fill="url(#paint1_linear_1845_3582)"/>
</g>
</g>
<path d="M137.403 57.8964L114.633 23.5164H130.293L144.603 45.8364L158.913 23.5164H174.573L151.803 57.8964V88.3164H137.403V57.8964ZM207.871 89.7564C188.431 89.7564 172.771 74.6364 172.771 55.9164C172.771 37.1964 188.431 22.0764 207.871 22.0764C227.221 22.0764 242.971 37.1964 242.971 55.9164C242.971 74.6364 227.221 89.7564 207.871 89.7564ZM228.571 55.9164C228.571 44.3964 219.301 35.0364 207.871 35.0364C196.441 35.0364 187.171 44.3964 187.171 55.9164C187.171 67.4364 196.441 76.7964 207.871 76.7964C219.301 76.7964 228.571 67.4364 228.571 55.9164ZM314.999 67.2564C310.139 80.3964 297.179 89.7564 281.879 89.7564C262.349 89.7564 246.599 74.6364 246.599 55.9164C246.599 37.1964 262.349 22.0764 281.879 22.0764C297.269 22.0764 310.409 31.5264 315.179 44.7564H299.519C295.829 38.9064 289.349 35.0364 281.879 35.0364C270.359 35.0364 260.999 44.3964 260.999 55.9164C260.999 67.4364 270.359 76.7964 281.879 76.7964C289.259 76.7964 295.649 73.0164 299.339 67.2564H314.999ZM353.505 89.7564C334.065 89.7564 318.405 74.6364 318.405 55.9164C318.405 37.1964 334.065 22.0764 353.505 22.0764C372.855 22.0764 388.605 37.1964 388.605 55.9164C388.605 74.6364 372.855 89.7564 353.505 89.7564ZM374.205 55.9164C374.205 44.3964 364.935 35.0364 353.505 35.0364C342.075 35.0364 332.805 44.3964 332.805 55.9164C332.805 67.4364 342.075 76.7964 353.505 76.7964C364.935 76.7964 374.205 67.4364 374.205 55.9164Z" fill="url(#paint2_linear_1845_3582)"/>
<path d="M132.881 101.378H135.018L140.093 115.562L151.082 101.378H153.047L140.708 117.271L139 125.816H137.205L138.914 117.271L132.881 101.378ZM154.244 116.776C153.218 121.891 154.785 124.449 158.943 124.449C163.102 124.449 165.694 121.891 166.719 116.776C167.722 111.751 166.144 109.239 161.985 109.239C157.827 109.239 155.246 111.751 154.244 116.776ZM152.432 116.844C153.651 110.749 156.938 107.701 162.293 107.701C167.648 107.701 169.716 110.749 168.497 116.844C167.278 122.928 163.991 125.97 158.636 125.97C153.304 125.97 151.236 122.928 152.432 116.844ZM189.346 107.872L185.757 125.816H184.305L185.04 120.45C182.225 124.028 179.206 125.816 175.982 125.816C172.872 125.816 171.664 124.079 172.359 120.604L174.905 107.872H176.7L174.153 120.604C173.675 123.008 174.421 124.21 176.392 124.21C179.571 124.21 182.579 122.313 185.416 118.519L187.552 107.872H189.346ZM202.54 116.776C201.514 121.891 203.081 124.449 207.239 124.449C211.398 124.449 213.99 121.891 215.015 116.776C216.018 111.751 214.44 109.239 210.281 109.239C206.123 109.239 203.542 111.751 202.54 116.776ZM200.728 116.844C201.947 110.749 205.234 107.701 210.589 107.701C215.944 107.701 218.012 110.749 216.792 116.844C215.573 122.928 212.286 125.97 206.932 125.97C201.6 125.97 199.532 122.928 200.728 116.844ZM219.612 125.816L223.201 107.872H224.654L223.919 113.238C226.733 109.661 229.638 107.872 232.635 107.872C235.973 107.872 237.295 109.61 236.6 113.084L234.053 125.816H232.259L234.805 113.084C235.284 110.681 234.424 109.479 232.225 109.479C229.274 109.479 226.38 111.375 223.543 115.169L221.407 125.816H219.612ZM246.563 101.378L241.675 125.816H239.881L244.769 101.378H246.563ZM261.226 120.45C258.412 124.028 255.393 125.816 252.168 125.816C249.058 125.816 247.85 124.079 248.545 120.604L251.092 107.872H252.886L250.34 120.604C249.861 123.008 250.608 124.21 252.579 124.21C255.757 124.21 258.765 122.313 261.602 118.519L263.738 107.872H265.533L261.944 125.816C261.078 130.146 258.007 132.311 252.732 132.311C250.522 132.311 248.619 132.026 247.024 131.456L247.332 129.918C248.961 130.488 250.875 130.772 253.074 130.772C257.13 130.772 259.489 129.12 260.149 125.816L261.226 120.45ZM288.724 123.595C286.946 125.076 284.918 125.816 282.64 125.816C277.627 125.816 275.73 122.769 276.949 116.673C278.122 110.806 281.5 107.872 287.083 107.872C288.792 107.872 290.353 108.043 291.766 108.385L291.458 109.923C289.931 109.581 288.427 109.41 286.946 109.41C282.56 109.41 279.882 111.831 278.914 116.673C277.9 121.743 279.301 124.278 283.118 124.278C285.169 124.278 287.151 123.481 289.065 121.886L288.724 123.595ZM295.303 116.776C294.278 121.891 295.844 124.449 300.003 124.449C304.161 124.449 306.753 121.891 307.779 116.776C308.781 111.751 307.203 109.239 303.045 109.239C298.886 109.239 296.306 111.751 295.303 116.776ZM293.492 116.844C294.711 110.749 297.998 107.701 303.353 107.701C308.707 107.701 310.775 110.749 309.556 116.844C308.337 122.928 305.05 125.97 299.695 125.97C294.363 125.97 292.295 122.928 293.492 116.844ZM326.167 125.816H324.715L325.228 121.544C322.858 124.392 320.328 125.816 317.64 125.816C313.561 125.816 312.114 122.848 313.299 116.913C314.507 110.886 317.873 107.872 323.399 107.872C325.062 107.872 326.561 107.986 327.894 108.214L329.261 101.378H331.055L326.167 125.816ZM327.552 109.889C326.071 109.615 324.533 109.479 322.938 109.479C318.665 109.479 316.039 111.945 315.059 116.878C314.091 121.698 315.07 124.107 317.999 124.107C320.778 124.107 323.308 122.66 325.586 119.767L327.552 109.889ZM342.471 107.872C346.823 107.872 348.686 109.433 348.06 112.555C347.41 115.79 344.978 117.408 340.762 117.408H334.268C333.357 121.988 335.043 124.278 339.327 124.278C341.708 124.278 343.85 123.481 345.752 121.886L345.411 123.595C343.531 125.076 341.4 125.816 339.019 125.816C333.539 125.816 331.408 122.757 332.627 116.639C333.801 110.794 337.082 107.872 342.471 107.872ZM334.593 115.802H341.053C344.095 115.802 345.838 114.702 346.282 112.503C346.692 110.418 345.319 109.376 342.164 109.376C338.176 109.376 335.652 111.518 334.593 115.802ZM361.338 116.776C360.313 121.891 361.88 124.449 366.038 124.449C370.197 124.449 372.789 121.891 373.814 116.776C374.817 111.751 373.239 109.239 369.08 109.239C364.922 109.239 362.341 111.751 361.338 116.776ZM359.527 116.844C360.746 110.749 364.033 107.701 369.388 107.701C374.743 107.701 376.81 110.749 375.591 116.844C374.372 122.928 371.085 125.97 365.73 125.97C360.398 125.97 358.331 122.928 359.527 116.844ZM378.411 125.816L382 107.872H383.453L382.718 113.238C385.532 109.661 388.437 107.872 391.434 107.872C394.772 107.872 396.093 109.61 395.398 113.084L392.852 125.816H391.058L393.604 113.084C394.083 110.681 393.222 109.479 391.023 109.479C388.073 109.479 385.179 111.375 382.342 115.169L380.206 125.816H378.411ZM411.087 123.595C409.31 125.076 407.282 125.816 405.003 125.816C399.99 125.816 398.093 122.769 399.312 116.673C400.486 110.806 403.864 107.872 409.446 107.872C411.155 107.872 412.716 108.043 414.129 108.385L413.821 109.923C412.295 109.581 410.791 109.41 409.31 109.41C404.923 109.41 402.246 111.831 401.277 116.673C400.263 121.743 401.665 124.278 405.481 124.278C407.532 124.278 409.515 123.481 411.429 121.886L411.087 123.595ZM425.733 107.872C430.085 107.872 431.948 109.433 431.321 112.555C430.672 115.79 428.239 117.408 424.024 117.408H417.53C416.618 121.988 418.305 124.278 422.588 124.278C424.97 124.278 427.111 123.481 429.014 121.886L428.672 123.595C426.792 125.076 424.662 125.816 422.281 125.816C416.801 125.816 414.67 122.757 415.889 116.639C417.063 110.794 420.344 107.872 425.733 107.872ZM417.854 115.802H424.314C427.356 115.802 429.1 114.702 429.544 112.503C429.954 110.418 428.581 109.376 425.425 109.376C421.438 109.376 418.914 111.518 417.854 115.802Z" fill="black"/>
<defs>
<filter id="filter0_d_1845_3582" x="38.303" y="45.4181" width="36.0266" height="36.0259" filterUnits="userSpaceOnUse" color-interpolation-filters="sRGB">
<feFlood flood-opacity="0" result="BackgroundImageFix"/>
<feColorMatrix in="SourceAlpha" type="matrix" values="0 0 0 0 0 0 0 0 0 0 0 0 0 0 0 0 0 0 127 0" result="hardAlpha"/>
<feOffset dy="3.4311"/>
<feGaussianBlur stdDeviation="3.85999"/>
<feComposite in2="hardAlpha" operator="out"/>
<feColorMatrix type="matrix" values="0 0 0 0 0.545933 0 0 0 0 0.0316667 0 0 0 0 0.95 0 0 0 0.35 0"/>
<feBlend mode="normal" in2="BackgroundImageFix" result="effect1_dropShadow_1845_3582"/>
<feBlend mode="normal" in="SourceGraphic" in2="effect1_dropShadow_1845_3582" result="shape"/>
</filter>
<linearGradient id="paint0_linear_1845_3582" x1="49.4432" y1="51.9346" x2="64.1067" y2="68.7365" gradientUnits="userSpaceOnUse">
<stop stop-color="#962EFF"/>
<stop offset="1" stop-color="#BC2EFF"/>
</linearGradient>
<linearGradient id="paint1_linear_1845_3582" x1="10.2847" y1="13.5636" x2="107.363" y2="20.8382" gradientUnits="userSpaceOnUse">
<stop stop-color="#8F00FF"/>
<stop offset="0.9999" stop-color="#4A44EE"/>
</linearGradient>
<linearGradient id="paint2_linear_1845_3582" x1="114.633" y1="3.99994" x2="386.362" y2="34.3567" gradientUnits="userSpaceOnUse">
<stop stop-color="#8F00FF"/>
<stop offset="0.9999" stop-color="#4A44EE"/>
</linearGradient>
<clipPath id="clip0_1845_3582">
<rect width="112.633" height="112.633" fill="white" transform="translate(0 3.68359)"/>
</clipPath>
</defs>
</svg>
